<?xml version="1.0" encoding="iso-8859-1"?>
<!-- Generator: Adobe Illustrator 18.1.1, SVG Export Plug-In . SVG Version: 6.00 Build 0)  -->
<svg version="1.1" id="Capa_1" xmlns="http://www.w3.org/2000/svg" xmlns:xlink="http://www.w3.org/1999/xlink" x="0px" y="0px"
	 viewBox="0 0 485.202 485.202" style="enable-background:new 0 0 485.202 485.202;" xml:space="preserve">
<g>
	<g>
		<path style="fill:#010002;" d="M147.066,242.362c0,0-1.193,8.646,8.55,8.646s183.326,0,183.326,0v-0.002
			c0.136,0.009,0.271,0.02,0.407,0.02c1.773,0,3.516-0.688,4.825-1.985l39.418-39.11c1.299-1.286,2.028-3.04,2.026-4.867
			L385.55,26.157c0-5.218-3.843-7.907-6.759-7.907H195.802c-1.543,0-3.04,0.521-4.25,1.479l-41.924,33.173
			c-1.845,1.46-2.761,3.732-2.55,6.003h-0.011L147.066,242.362L147.066,242.362z M270.592,224.279l-1.179-50.28h-41.777
			l-22.735,50.28l-17.186,0.074l74.13-156.176h18.381l6.42,156.215L270.592,224.279z M371.939,202.211l-25.741,25.527
			l-0.032-166.053l25.691-21.639L371.939,202.211z M198.185,31.949h160.909l-24.608,19.473h-160.91L198.185,31.949z"/>
		<polygon style="fill:#010002;" points="266.463,88.595 234.338,160.199 268.763,160.199 266.925,88.595 		"/>
		<path style="fill:#010002;" d="M105.01,372.517H78.115l-10.888,50.979h22.358c16.874,0,33.475-3.715,37.78-24.037
			C130.528,384.583,123.354,372.517,105.01,372.517z"/>
		<path style="fill:#010002;" d="M111.901,308.663H91.597l-10.06,46.697h21.482c16.601,0,27.224-10.613,30.08-24.074
			C136.806,313.546,125.38,308.663,111.901,308.663z"/>
		<path style="fill:#010002;" d="M224.836,260.141l0.059,157.996l-25.719,25.527l-0.032-166.053l20.744-17.471h-23.316l-9.107,7.206
			H26.555l24.609-19.473h87.314c-0.644-2.49-0.635-4.69-0.545-5.925v-7.776H48.781c-1.543,0-3.041,0.521-4.25,1.479L2.607,268.825
			c-1.845,1.459-2.76,3.732-2.551,6.003h-0.01v183.459c0,0-1.193,8.646,8.55,8.646s183.326,0,183.326,0v-0.002
			c0.136,0.009,0.271,0.02,0.406,0.02c1.773,0,3.517-0.688,4.826-1.985l39.418-39.111c1.298-1.286,2.027-3.039,2.026-4.866
			l-0.062-160.847L224.836,260.141L224.836,260.141z M153.142,331.287c-2.593,12.896-10.585,24.338-23.462,30.654
			c15.469,5.146,21.453,19.191,18.052,36.084c-5.73,26.938-26.95,42.664-58.123,42.664H28.873l3.704-17.193h15.44l24.366-114.832
			H56.936l3.693-17.176h46.98C145.411,291.488,158.562,305.796,153.142,331.287z"/>
		<path style="fill:#010002;" d="M485.136,242.08c0-5.218-3.843-7.907-6.759-7.907H372.124l-13.81,13.701h100.364l-24.608,19.473
			H273.16l9.108-7.208h-22.08l-10.976,8.687c-1.845,1.459-2.761,3.732-2.551,6.003h-0.01v183.459c0,0-1.193,8.646,8.55,8.646
			c9.742,0,183.325,0,183.325,0v-0.002c0.136,0.009,0.271,0.02,0.406,0.02c1.773,0,3.517-0.688,4.826-1.985l39.418-39.111
			c1.298-1.286,2.027-3.039,2.026-4.866L485.136,242.08z M333.043,425.04c17.102,0,28.018-10.369,39.479-23.525l13.18,10.633
			c-15.703,18.494-32.201,30.541-54.824,30.541c-42.568,0-47.641-39.213-40.043-75.26c12.313-58.221,47.037-75.582,70.512-75.582
			c22.658,0,33.293,11.709,39.479,31.031l-19.002,8.674c-3.641-11.746-9.807-22.115-24.076-22.115
			c-29.127,0-42.57,35.234-47.32,57.635C305.631,389.767,303.409,425.04,333.043,425.04z M445.783,443.664l-0.032-166.053
			l25.691-21.638l0.083,162.163L445.783,443.664z"/>
	</g>
</g>
<g>
</g>
<g>
</g>
<g>
</g>
<g>
</g>
<g>
</g>
<g>
</g>
<g>
</g>
<g>
</g>
<g>
</g>
<g>
</g>
<g>
</g>
<g>
</g>
<g>
</g>
<g>
</g>
<g>
</g>
</svg>
