<svg id="Layer_1" enable-background="new 0 0 511.989 511.989" height="512" viewBox="0 0 511.989 511.989" width="512" xmlns="http://www.w3.org/2000/svg"><g><g><g><path d="m221.313 104.942v-27.293c0-12.71 10.303-23.013 23.013-23.013h23.338c12.71 0 23.013 10.303 23.013 23.013v27.292h-69.364z" fill="#77839e"/><g><path d="m437.405 206.104h-77.383c4.782 21.662 7.41 45.189 7.41 69.79s-2.628 48.127-7.41 69.79h77.383c8.339-21.662 12.922-45.189 12.922-69.79s-4.583-48.128-12.922-69.79z" fill="#8edef7"/><path d="m144.557 275.894c0-24.6 2.628-48.127 7.41-69.79h-77.382c-8.339 21.662-12.922 45.189-12.922 69.79s4.583 48.127 12.922 69.79h77.383c-4.783-21.663-7.411-45.19-7.411-69.79z" fill="#00ccf4"/><path d="m255.995 81.562c-82.726 0-153.367 51.697-181.41 124.542h77.383c16.08-72.845 56.588-124.542 104.027-124.542z" fill="#8edef7"/><path d="m151.967 345.684h-77.382c28.043 72.845 98.684 124.542 181.41 124.542-47.439 0-87.947-51.697-104.028-124.542z" fill="#8edef7"/><path d="m360.022 206.104h77.383c-28.043-72.845-98.684-124.542-181.41-124.542 47.438 0 87.946 51.697 104.027 124.542z" fill="#00ccf4"/><path d="m255.995 470.226c82.726 0 153.367-51.697 181.41-124.542h-77.383c-16.081 72.845-56.589 124.542-104.027 124.542z" fill="#00ccf4"/><path d="m151.967 206.104c-4.782 21.662-7.41 45.189-7.41 69.79s2.628 48.127 7.41 69.79h104.027v-139.58z" fill="#6edeff"/><path d="m255.995 345.684h104.027c4.782-21.662 7.41-45.189 7.41-69.79s-2.628-48.127-7.41-69.79h-104.027z" fill="#cef1fc"/><path d="m151.967 345.684c16.081 72.845 56.589 124.542 104.027 124.542v-124.542z" fill="#cef1fc"/><path d="m360.022 345.684h-104.027v124.542c47.438 0 87.946-51.697 104.027-124.542z" fill="#8edef7"/><path d="m360.022 206.104c-16.081-72.845-56.589-124.542-104.027-124.542v124.542z" fill="#6edeff"/><path d="m151.967 206.104h104.027v-124.542c-47.438 0-87.946 51.697-104.027 124.542z" fill="#cef1fc"/></g><path d="m146.557 234.487 13.177 29.84 24.093 13.177-24.093 13.177-13.177 29.84-13.176-29.84-24.093-13.177 24.093-13.177z" fill="#ffed59"/></g></g><path d="m394.263 105.416 9.487 21.483 17.345 9.486-17.345 9.487-9.487 21.482-9.486-21.482-17.345-9.487 17.345-9.486z" fill="#ffed59"/><g><path d="m413.16 149.273 11.533-6.308c5.202-4.387 5.202-8.773 0-13.16l-15.111-8.265-8.458-19.154c-4.574-5.96-9.148-5.96-13.722 0l-6.582 14.906c-24.31-19.143-52.628-32.344-82.644-38.759-.366-19.242-15.895-32.35-34.682-31.396v-39.743c0-9.697-15-9.697-15 0v39.743c-18.924-1.031-34.303 12.274-34.682 31.373-91.109 19.45-159.65 100.558-159.65 197.384 0 111.29 90.541 201.832 201.832 201.832 48.508 0 95.396-17.461 132.027-49.168 7.332-6.346-2.486-17.691-9.816-11.342-19.339 16.739-41.771 29.181-65.805 36.788 10.573-9.603 20.312-21.993 28.899-36.966 10.7-18.659 19.022-40.316 24.715-63.854h60.152c-5.383 11.813-12.03 23.118-19.908 33.76-5.638 7.615 6.085 16.99 12.056 8.925 25.85-34.917 39.514-76.404 39.514-119.975-.002-46.172-15.817-90.836-44.668-126.621zm-53.228 126.621c0 21.56-2.046 42.546-5.964 62.29h-90.473v-124.58h90.473c3.918 19.744 5.964 40.73 5.964 62.29zm-111.437 186.337c-20.156-2.614-39.256-15.754-55.632-38.413-13.557-18.759-24.335-43.173-31.385-70.635h87.018v109.048zm-90.434-124.048c-1.088-5.446-2.038-10.983-2.833-16.6-.068-.478-.183-.936-.333-1.377l10.672-24.168 21.859-11.955c5.202-4.387 5.202-8.773 0-13.16l-21.859-11.955-10.885-24.651c.898-7.007 2.03-13.926 3.386-20.714h90.427v124.579h-90.434zm-88.898-62.289c0-21.833 3.777-42.797 10.691-62.29h62.937c-1.079 5.685-2.008 11.448-2.782 17.267-4.9 8.875-8.364 18.821-12.46 28.097l-21.859 11.955c-5.202 4.387-5.202 8.773 0 13.16l21.859 11.955 12.148 27.511c.233.529.538 1.008.875 1.458.65 4.461 1.385 8.853 2.2 13.176h-62.918c-6.914-19.492-10.691-40.456-10.691-62.289zm83.71 11.757-6.315 14.303-6.316-14.303c-.667-1.51-1.813-2.758-3.262-3.55l-12.061-6.597 12.061-6.596c1.449-.792 2.595-2.04 3.262-3.55l6.316-14.303 6.315 14.303c.667 1.511 1.813 2.759 3.262 3.551l12.061 6.596-12.061 6.597c-1.448.79-2.595 2.039-3.262 3.549zm110.622-89.047v-109.052c24.196 3.163 46.969 21.579 64.792 52.659 9.476 16.525 16.972 35.616 22.286 56.393zm77.804-63.854c-8.585-14.972-18.323-27.36-28.895-36.963 20.271 6.418 39.4 16.281 56.491 29.25l-5.062 2.768c-5.202 4.387-5.202 8.773 0 13.16l15.111 8.265 8.458 19.154c4.574 5.96 9.148 5.96 13.722 0l3.436-7.781c8.552 11.207 15.764 23.29 21.538 36.002h-60.085c-5.692-23.54-14.015-45.196-24.714-63.855zm50.339-4.821 2.625-5.946c1.733 5.832 5.587 10.12 11.201 12.402-5.616 2.303-9.477 6.577-11.201 12.402-1.733-5.832-5.587-10.12-11.201-12.402 2.753-1.112 7.365-3.715 8.576-6.456zm-147.312-67.792h23.338c7.958 0 14.528 6.026 15.406 13.753-17.947-2.43-36.2-2.423-54.148-.006.879-7.724 7.448-13.747 15.404-13.747zm-44.648 35.606c-5.172 4.694-10.161 10.058-14.929 16.089-6.013 7.608 5.752 16.908 11.768 9.303 15.542-19.661 33.378-31.14 51.979-33.577v109.046h-87.016c3.707-14.468 8.446-28.14 14.099-40.524 4.027-8.821-9.618-15.05-13.646-6.229-6.499 14.24-11.853 30.045-15.905 46.753h-60.114c21.797-47.776 63.149-84.825 113.764-100.861zm-113.764 255.44h60.074c10.602 43.91 29.837 79.254 53.861 100.917-50.693-16.006-92.113-53.086-113.935-100.917zm242.372 56.394c-17.822 31.08-40.595 49.497-64.792 52.659v-109.053h87.078c-5.314 20.777-12.81 39.869-22.286 56.394zm40.953-71.394c3.745-19.859 5.693-40.824 5.693-62.29s-1.948-42.43-5.693-62.29h62.9c7.014 19.843 10.687 40.891 10.687 62.29 0 21.524-3.604 42.497-10.599 62.29z"/><path d="m185.101 387.261c.371.867 9.254 21.403 23.396 36.648 6.65 7.169 17.556-3.131 10.997-10.201-12.337-13.299-20.525-32.168-20.606-32.357-3.823-8.909-17.604-3.001-13.787 5.91z"/><path d="m423.149 230.43c-3.186-9.158-17.353-4.231-14.167 4.929.07.201 7.006 20.395 6.255 40.252-.355 9.412 14.616 10.443 14.989.566.857-22.652-6.752-44.815-7.077-45.747z"/><path d="m452.073 171.55c1.18 0 2.377-.279 3.494-.868l52.428-27.663c8.577-4.526 1.577-17.791-7-13.267l-52.428 27.663c-6.193 3.267-4.467 14.135 3.506 14.135z"/><path d="m351.265 82.802c3.818 1.705 7.163.558 10.033-3.44l33.602-68.672c4.262-8.711-9.211-15.302-13.474-6.593l-33.602 68.671c-1.82 3.722-.28 8.213 3.441 10.034z"/><path d="m58.84 373.449-54.168 22.005c-8.848 3.595-3.029 17.421 5.646 13.897l54.168-22.005c8.984-3.649 3.338-17.549-5.646-13.897z"/><path d="m146.266 463.656c-3.627-1.997-8.189-.677-10.188 2.951l-18.821 34.168c-4.462 8.101 8.137 16.318 13.139 7.237l18.821-34.168c1.998-3.628.677-8.189-2.951-10.188z"/><path d="m3.995 143.018 54.168 28.582c8.18 4.316 15.82-8.613 7-13.267l-54.168-28.582c-8.577-4.523-15.577 8.742-7 13.267z"/><path d="m150.691 79.362c4.611 9.421 17.5 1.638 13.474-6.593l-33.602-68.671c-4.263-8.71-17.735-2.118-13.474 6.593z"/><path d="m507.317 395.454-54.168-22.005c-8.985-3.648-14.63 10.247-5.646 13.897l54.168 22.005c8.648 3.513 14.594-10.262 5.646-13.897z"/><path d="m375.911 466.607c-4.679-8.494-17.818-1.257-13.139 7.237l18.821 34.168c5.002 9.08 17.601.863 13.139-7.237z"/></g></g></svg>